<svg width="549" height="536" viewBox="0 0 549 536" fill="none" xmlns="http://www.w3.org/2000/svg">
<path d="M472.409 11.5386H511.859L511.819 51.0347L472.317 51.0809L472.409 11.5386Z" fill="#E0E6F6"/>
<path d="M57.6127 462.306L78.4223 402.773L131.476 389.654L114.278 445.702L57.6127 462.306Z" fill="#E0E6F6"/>
<path d="M381.105 299.683L377.309 342.802L330.734 349.673L336.197 304.944L381.105 299.683Z" fill="#E0E6F6"/>
<path d="M282.861 357.796L233.696 367.165L243.406 318.34L290.298 311.164L282.861 357.796Z" fill="#E0E6F6"/>
<path d="M389.449 173.267L430.364 171.86L428.904 212.723L387.176 214.916L389.449 173.267Z" fill="#E0E6F6"/>
<path d="M384.387 257.06L427.125 253.892L425.02 295.379L381.104 299.683L384.387 257.06Z" fill="#E0E6F6"/>
<path d="M296.741 265.489L251.822 270.762L258.941 224.435L302.193 220.771L296.741 265.489Z" fill="#E0E6F6"/>
<path d="M309.976 488.071L254.603 503.423L265.016 453.923L317.62 441.237L309.976 488.071Z" fill="#E0E6F6"/>
<path d="M393.493 11.5386H432.954L432.787 51.1501L393.245 51.2367L393.493 11.5386Z" fill="#E0E6F6"/>
<path d="M413.368 464.446L362.893 475.079L368.206 430.5L416.766 421.714L413.368 464.446Z" fill="#E0E6F6"/>
<path d="M96.7871 345.6L112.699 290.792L159.799 283.414L146.651 335.556L96.7871 345.6Z" fill="#E0E6F6"/>
<path d="M196.79 521.14L136.525 541.217L153.735 485.158L210.388 468.565L196.79 521.14Z" fill="#E0E6F6"/>
<path d="M8.6554 588.462L34.3573 524.204L95.0554 503.706L73.8131 563.66L8.6554 588.462Z" fill="#E0E6F6"/>
<path d="M506.966 450.277L461.389 456.179L463.299 414.877L507.814 409.996L506.966 450.277Z" fill="#E0E6F6"/>
<path d="M126.163 238.344L137.176 188.256L180.03 184.979L170.926 233.221L126.163 238.344Z" fill="#E0E6F6"/>
<path d="M235.674 11.5386H275.129L274.477 51.6174L234.854 51.7847L235.674 11.5386Z" fill="#E0E6F6"/>
<path d="M302.194 220.771L306.654 177.012L348.215 174.981L344.933 217.604L302.194 220.771Z" fill="#E0E6F6"/>
<path d="M314.587 11.5386H354.043L353.674 51.3463L314.091 51.4732L314.587 11.5386Z" fill="#E0E6F6"/>
<path d="M336.197 304.944L290.297 311.164L296.742 265.489L340.928 260.919L336.197 304.944Z" fill="#E0E6F6"/>
<path d="M344.933 217.604L387.175 214.916L384.389 257.06L340.929 260.919L344.933 217.604Z" fill="#E0E6F6"/>
<path d="M145.745 140.533L151.866 95.175L192.17 94.3558L187.116 138.692L145.745 140.533Z" fill="#E0E6F6"/>
<path d="M156.764 11.5386H196.22L195.204 51.9693L155.541 52.177L156.764 11.5386Z" fill="#E0E6F6"/>
<path d="M222.562 182.013L180.031 184.979L187.116 138.692L228.302 137.019L222.562 182.013Z" fill="#E0E6F6"/>
<path d="M206.177 276.733L159.798 283.414L170.927 233.221L215.188 228.583L206.177 276.733Z" fill="#E0E6F6"/>
<path d="M192.169 94.3559L195.203 51.9693L234.855 51.7847L232.398 93.6116L192.169 94.3559Z" fill="#E0E6F6"/>
<path d="M183.233 377.787L131.477 389.654L146.65 335.556L195.521 326.469L183.233 377.787Z" fill="#E0E6F6"/>
<path d="M272.539 92.9481L274.478 51.6173L314.089 51.4731L312.601 92.3654L272.539 92.9481Z" fill="#E0E6F6"/>
<path d="M465.031 373.754L463.3 414.877L416.765 421.714L419.84 379.287L465.031 373.754Z" fill="#E0E6F6"/>
<path d="M352.583 91.8578L353.673 51.3463L393.244 51.2367L392.483 91.4251L352.583 91.8578Z" fill="#E0E6F6"/>
<path d="M153.735 485.158L95.0564 503.706L114.279 445.702L169.301 430.679L153.735 485.158Z" fill="#E0E6F6"/>
<path d="M274.433 405.381L265.018 453.923L210.389 468.565L222.689 417.242L274.433 405.381Z" fill="#E0E6F6"/>
<path d="M264.769 179.354L269.303 135.525L310.121 134.21L306.653 177.012L264.769 179.354Z" fill="#E0E6F6"/>
<path d="M508.583 369.802L550.496 367.431L550.306 407.071L507.816 409.996L508.583 369.802Z" fill="#E0E6F6"/>
<path d="M432.302 91.0731L432.786 51.1501L472.317 51.0808L472.04 90.802L432.302 91.0731Z" fill="#E0E6F6"/>
<path d="M509.879 289.639L550.824 288.208L550.668 327.808L509.274 329.683L509.879 289.639Z" fill="#E0E6F6"/>
<path d="M511.82 51.0347L551.31 51.0059L551.275 90.4905L511.698 90.6059L511.82 51.0347Z" fill="#E0E6F6"/>
<path d="M511.497 130.258L551.229 129.992L551.154 169.517L511.214 169.985L511.497 130.258Z" fill="#E0E6F6"/>
<path d="M510.849 209.792L551.067 209.06L550.951 248.625L510.405 249.675L510.849 209.792Z" fill="#E0E6F6"/>
<path d="M373.011 386.406L368.205 430.5L317.62 441.237L324.543 395.1L373.011 386.406Z" fill="#E0E6F6"/>
<path d="M425.02 295.379L467.943 292.033L466.576 332.804L422.591 337.177L425.02 295.379Z" fill="#E0E6F6"/>
<path d="M422.592 337.177L419.84 379.287L373.012 386.406L377.31 342.802L422.592 337.177Z" fill="#E0E6F6"/>
<path d="M330.734 349.673L324.544 395.1L274.432 405.381L282.861 357.796L330.734 349.673Z" fill="#E0E6F6"/>
<path d="M222.688 417.242L169.299 430.679L183.232 377.787L233.695 367.165L222.688 417.242Z" fill="#E0E6F6"/>
<path d="M431.494 131.314L471.585 130.696L470.95 170.769L430.364 171.86L431.494 131.314Z" fill="#E0E6F6"/>
<path d="M466.577 332.804L509.275 329.683L508.583 369.802L465.031 373.754L466.577 332.804Z" fill="#E0E6F6"/>
<path d="M348.215 174.981L350.765 133.067L391.219 132.104L389.448 173.267L348.215 174.981Z" fill="#E0E6F6"/>
<path d="M243.405 318.34L195.52 326.469L206.176 276.733L251.822 270.762L243.405 318.34Z" fill="#E0E6F6"/>
<path d="M428.904 212.723L470.131 211.01L469.127 251.435L427.127 253.892L428.904 212.723Z" fill="#E0E6F6"/>
<path d="M470.95 170.769L511.213 169.985L510.85 209.792L470.131 211.01L470.95 170.769Z" fill="#E0E6F6"/>
<path d="M469.128 251.435L510.406 249.675L509.881 289.639L467.945 292.033L469.128 251.435Z" fill="#E0E6F6"/>
<path d="M472.04 90.802L511.698 90.6059L511.496 130.258L471.584 130.696L472.04 90.802Z" fill="#E0E6F6"/>
<path d="M391.219 132.104L392.482 91.4251L432.301 91.0732L431.494 131.314L391.219 132.104Z" fill="#E0E6F6"/>
<path d="M258.941 224.435L215.187 228.583L222.56 182.014L264.768 179.354L258.941 224.435Z" fill="#E0E6F6"/>
<path d="M228.301 137.019L232.397 93.6117L272.539 92.9482L269.303 135.525L228.301 137.019Z" fill="#E0E6F6"/>
<path d="M310.12 134.21L312.601 92.3654L352.582 91.8577L350.764 133.067L310.12 134.21Z" fill="#E0E6F6"/>
</svg>
